#!OML:ASF F:\VICON\USERDATA\INSTALL\Justin_Nancy\Justin_Nancy.ASF
:FULLY-SPECIFIED
:DEGREES
17
root 0.858779 16.6008 -26.6348 5.34203 0.243171 1.49034
lowerback 12.4036 1.24571 -3.21216
upperback 1.94542 1.27226 0.906884
thorax -5.00092 0.688814 2.55525
lowerneck -18.8469 -5.27565 -9.20962
upperneck 9.97417 -6.0253 8.54718
head 6.65091 -2.55799 3.5819
rclavicle -9.74045e-015 1.55052e-014
rhumerus -50.0913 7.04989 -93.5498
rradius 110.588
rwrist -7.68333
rhand -17.6362 23.2807
rfingers 7.12502
rthumb 8.62141 -6.52324
lclavicle -9.74045e-015 1.55052e-014
lhumerus -39.6698 -9.24489 91.47
lradius 111.794
lwrist 31.2487
lhand -18.2652 12.7149
lfingers 7.12502
lthumb 8.01437 42.543
rfemur -26.2041 -2.33507 17.5959
rtibia 101.838
rfoot 8.40238 2.62459
rtoes -4.89398
lfemur -23.1505 -0.216423 -25.5484
ltibia 49.0267
lfoot -24.8807 2.49844
ltoes -3.58472
18
root 0.858417 16.5826 -26.271 5.6041 0.606039 1.6791
lowerback 12.2595 0.945352 -3.33594
upperback 1.96436 0.86109 0.856689
thorax -4.87345 0.486012 2.64233
lowerneck -19.3635 -5.27497 -9.30902
upperneck 10.3099 -5.99706 8.69999
head 6.85012 -2.52159 3.64737
rclavicle -8.34896e-015 9.93923e-015
rhumerus -50.9285 6.836 -93.6476
rradius 110.427
rwrist -6.99011
rhand -17.7739 22.4546
rfingers 7.12502
rthumb 8.48856 -7.35482
lclavicle -8.34896e-015 9.93923e-015
lhumerus -37.9304 -8.85777 91.3118
lradius 112.168
lwrist 30.3549
lhand -17.4361 10.7121
lfingers 7.12502
lthumb 8.8145 40.508
rfemur -28.8219 -3.67927 17.2527
rtibia 103.033
rfoot 7.78955 3.35237
rtoes -9.61022
lfemur -21.7875 -0.637489 -25.7494
ltibia 48.7891
lfoot -25.6025 2.81993
ltoes -4.46523
19
root 0.853478 16.5576 -25.9114 5.79672 1.07465 2.1038
lowerback 12.2139 0.529518 -3.77022
upperback 1.90326 0.254401 0.839816
thorax -4.87037 0.195621 2.96983
lowerneck -19.6344 -5.14462 -9.4481
upperneck 10.5811 -5.78342 8.75047
head 6.96839 -2.41306 3.71234
rclavicle -3.47873e-015 5.1684e-015
rhumerus -51.9154 6.97794 -93.7795
rradius 110.298
rwrist -6.696
rhand -17.3727 22.7537
rfingers 7.12502
rthumb 8.87568 -7.0396
lclavicle -3.47873e-015 5.1684e-015
lhumerus -36.6093 -8.31717 91.2179
lradius 112.787
lwrist 29.5097
lhand -17.2661 9.66804
lfingers 7.12502
lthumb 8.97857 39.457
rfemur -31.2212 -5.10483 16.7131
rtibia 103.989
rfoot 7.10027 3.8629
rtoes -7.67992
lfemur -20.2525 -1.18904 -26.1903
ltibia 48.3767
lfoot -26.1472 3.21581
ltoes -5.29888
20
root 0.849898 16.5719 -25.5376 6.21397 1.55183 2.41724
lowerback 12.1224 0.114283 -4.12962
upperback 1.73253 -0.338369 0.884135
thorax -4.94936 -0.084798 3.31626
lowerneck -20.2431 -5.00479 -9.4857
upperneck 11.159 -5.55451 8.70112
head 7.23445 -2.29321 3.72933
rclavicle -6.16232e-015 6.75868e-015
rhumerus -52.914 7.15925 -93.8728
rradius 110.296
rwrist -6.53843
rhand -16.9359 23.4781
rfingers 7.12502
rthumb 9.29718 -6.29694
lclavicle -6.16232e-015 6.75868e-015
lhumerus -35.6286 -7.61181 91.2534
lradius 113.649
lwrist 28.6622
lhand -17.4057 9.24406
lfingers 7.12502
lthumb 8.84388 39.0387
rfemur -33.7194 -6.46417 16.5005
rtibia 104.356
rfoot 6.56905 4.25817
rtoes -5.0501
lfemur -18.7715 -1.81335 -26.4794
ltibia 47.5877
lfoot -26.3163 3.50199
ltoes -6.29131
21
root 0.857761 16.5982 -25.1768 6.4081 1.66161 2.65187
lowerback 12.5144 -0.180274 -4.28492
upperback 1.49326 -0.771486 0.864162
thorax -5.37949 -0.279968 3.46223
lowerneck -20.4224 -4.78775 -9.33538
upperneck 11.4224 -5.27453 8.54469
head 7.31444 -2.16221 3.68944
rclavicle -2.5842e-015 1.27222e-014
rhumerus -54.1564 7.30336 -94.0759
rradius 110.648
rwrist -6.68345
rhand -16.4586 23.9174
rfingers 7.12502
rthumb 9.75767 -5.83653
lclavicle -2.5842e-015 1.27222e-014
lhumerus -34.977 -6.77449 91.2563
lradius 114.65
lwrist 28.0376
lhand -17.3076 8.69196
lfingers 7.12502
lthumb 8.93852 38.4826
rfemur -36.1176 -7.41155 16.4024
rtibia 104.386
rfoot 5.93556 4.68283
rtoes -2.61668
lfemur -17.1146 -2.19498 -26.812
ltibia 46.6271
lfoot -25.9185 3.93181
ltoes -8.19282
22
root 0.853237 16.6521 -24.8055 6.72427 1.73706 2.78641
lowerback 12.4269 -0.510538 -4.49972
upperback 1.41726 -1.22897 0.976472
thorax -5.36241 -0.498183 3.77773
lowerneck -20.4887 -4.58904 -9.43752
upperneck 11.3147 -4.94979 8.46464
head 7.25932 -2.01783 3.72029
rclavicle -1.95803e-014 3.18055e-015
rhumerus -54.9551 7.63161 -94.1994
rradius 110.974
rwrist -7.21688
rhand -15.7805 24.0271
rfingers 7.12502
rthumb 10.4119 -5.69513
lclavicle -1.95803e-014 3.18055e-015
lhumerus -33.9474 -5.84895 91.2473
lradius 115.489
lwrist 27.7739
lhand -17.1191 8.68884
lfingers 7.12502
lthumb 9.12038 38.4716
rfemur -38.3314 -8.09764 16.6002
rtibia 103.844
rfoot 5.27743 4.94291
rtoes -0.111621
lfemur -15.5175 -2.47209 -26.9899
ltibia 45.4684
lfoot -25.0827 4.15674
ltoes -10.191
23
root 0.847487 16.7274 -24.4205 7.13497 2.18165 2.7228
lowerback 12.0497 -0.980463 -4.43289
upperback 1.45299 -1.81361 1.16965
thorax -5.05346 -0.795031 4.02548
lowerneck -20.9768 -4.36449 -9.32253
upperneck 11.2558 -4.58486 8.20044
head 7.27507 -1.85177 3.65678
rclavicle -4.55217e-014 7.15625e-015
rhumerus -55.4312 8.04456 -94.332
rradius 111.286
rwrist -7.70336
rhand -15.3034 23.8639
rfingers 7.12502
rthumb 10.8722 -5.83462
lclavicle -4.55217e-014 7.15625e-015
lhumerus -32.9192 -5.0695 91.2032
lradius 116.285
lwrist 27.7801
lhand -16.9724 8.8081
lfingers 7.12502
lthumb 9.26194 38.5847
rfemur -40.4106 -8.92288 17.1922
rtibia 102.674
rfoot 4.91746 4.97583
rtoes 1.66213
lfemur -13.9648 -3.14289 -26.8469
ltibia 44.2214
lfoot -24.0368 3.85086
ltoes -11.731
24
root 0.849534 16.812 -24.0149 7.6809 3.22351 2.85041
lowerback 11.4809 -1.67346 -4.26193
upperback 1.37184 -2.68094 1.28312
thorax -4.73756 -1.23299 4.15716
lowerneck -21.1355 -4.08335 -9.01143
upperneck 10.9914 -4.20824 7.86176
head 7.16362 -1.68569 3.53811
rclavicle -1.54058e-014 3.97569e-016
rhumerus -56.3099 8.37227 -94.5613
rradius 111.748
rwrist -7.84939
rhand -15.3267 24.4362
rfingers 7.12502
rthumb 10.8496 -5.26353
lclavicle -1.54058e-014 3.97569e-016
lhumerus -32.2722 -4.39336 91.1032
lradius 116.962
lwrist 27.8655
lhand -16.5676 9.03573
lfingers 7.12502
lthumb 9.65258 38.7946
rfemur -42.1455 -10.4037 17.6569
rtibia 101.063
rfoot 4.20275 5.14654
rtoes 2.01626
lfemur -12.4832 -4.46507 -26.8254
ltibia 42.9353
lfoot -22.6563 3.30569
ltoes -15.41
25
root 0.840417 16.9028 -23.6153 7.82932 3.0459 2.9221
lowerback 11.5269 -1.87585 -4.47002
upperback 1.25827 -2.97533 1.36482
thorax -4.83788 -1.36851 4.40927
lowerneck -21.2429 -3.86105 -8.63754
upperneck 10.8755 -3.94205 7.5121
head 7.10317 -1.57192 3.39279
rclavicle 3.47873e-015 6.36111e-015
rhumerus -57.3201 8.5864 -94.815
rradius 112.24
rwrist -8.07562
rhand -15.3758 24.6973
rfingers 7.12502
rthumb 10.8023 -5.00493
lclavicle 3.47873e-015 6.36111e-015
lhumerus -31.9791 -3.84888 90.95
lradius 117.623
lwrist 28.2794
lhand -16.2471 9.37379
lfingers 7.12502
lthumb 9.96178 39.1181
rfemur -43.5122 -10.3609 18.1085
rtibia 99.1344
rfoot 3.50189 5.11058
rtoes 2.90286
lfemur -10.6087 -4.61064 -26.9177
ltibia 41.6331
lfoot -20.9819 2.98491
ltoes -19.2019
26
root 0.832837 16.9947 -23.2189 7.93664 2.71087 2.87511
lowerback 11.6328 -1.99448 -4.59422
upperback 1.11121 -3.14826 1.50972
thorax -5.01849 -1.44137 4.6684
lowerneck -21.3535 -3.68215 -8.48077
upperneck 10.8347 -3.69983 7.30418
head 7.07927 -1.46616 3.32776
rclavicle -7.15625e-015 5.56597e-015
rhumerus -58.2565 8.72273 -94.9136
rradius 112.581
rwrist -8.27275
rhand -15.4211 24.7693
rfingers 7.12502
rthumb 10.7586 -4.93517
lclavicle -7.15625e-015 5.56597e-015
lhumerus -31.8317 -3.31769 90.9064
lradius 118.04
lwrist 28.6136
lhand -15.8916 9.27929
lfingers 7.12502
lthumb 10.3048 39.0068
rfemur -44.7506 -9.9426 18.6858
rtibia 96.8743
rfoot 2.84123 5.08722
rtoes 2.25896
lfemur -8.73211 -4.48091 -26.9001
ltibia 40.3255
lfoot -18.9223 2.53166
ltoes -22.2571
27
root 0.820246 17.0978 -22.8143 8.1117 2.46984 2.81809
lowerback 11.5107 -2.12682 -4.76397
upperback 1.0388 -3.32994 1.73015
thorax -4.98366 -1.5257 5.0196
lowerneck -21.4706 -3.52859 -8.62946
upperneck 10.6721 -3.44154 7.36254
head 7.02726 -1.34098 3.40251
rclavicle 2.48481e-015 3.57812e-015
rhumerus -59.0796 8.80154 -94.8483
rradius 112.969
rwrist -8.57507
rhand -15.7562 24.8152
rfingers 7.12502
rthumb 10.4353 -4.90578
lclavicle 2.48481e-015 3.57812e-015
lhumerus -31.79 -2.97299 90.9571
lradius 118.268
lwrist 28.9359
lhand -16.3005 8.84773
lfingers 7.12502
lthumb 9.91023 38.5945
rfemur -45.8654 -9.5008 19.3019
rtibia 94.2801
rfoot 2.4225 4.9815
rtoes -0.355013
lfemur -6.98441 -4.48164 -26.8101
ltibia 38.9852
lfoot -16.3856 1.65255
ltoes -23.9209
28
root 0.807859 17.2221 -22.4007 8.39351 2.34458 2.73291
lowerback 11.2979 -2.29468 -4.8307
upperback 1.02536 -3.54038 1.95383
thorax -4.83584 -1.63192 5.31137
lowerneck -22.0294 -3.41036 -8.63291
upperneck 10.6812 -3.21849 7.26924
head 7.09939 -1.23253 3.3992
rclavicle -5.06901e-015 -3.57812e-015
rhumerus -59.5695 8.73656 -94.7193
rradius 113.206
rwrist -8.8784
rhand -15.9312 25.0017
rfingers 7.12502
rthumb 10.2666 -4.72777
lclavicle -5.06901e-015 -3.57812e-015
lhumerus -31.6156 -2.84388 90.9935
lradius 118.36
lwrist 29.4094
lhand -17.1736 8.50437
lfingers 7.12502
lthumb 9.0678 38.2895
rfemur -46.7615 -9.08572 19.9466
rtibia 91.2769
rfoot 1.95037 4.83157
rtoes -2.28999
lfemur -5.45676 -4.41252 -26.5881
ltibia 37.6046
lfoot -13.6015 0.346717
ltoes -24.8155
29
root 0.792825 17.3492 -21.9833 8.59626 2.08833 2.72307
lowerback 11.2127 -2.39588 -4.92706
upperback 0.989588 -3.6789 2.04797
thorax -4.79657 -1.69862 5.48071
lowerneck -22.6405 -3.32833 -8.46239
upperneck 10.8966 -3.10569 7.20003
head 7.25504 -1.16699 3.36432
rclavicle -3.95581e-014 2.74323e-014
rhumerus -60.0406 8.49163 -94.7226
rradius 113.339
rwrist -9.10951
rhand -15.6869 25.0462
rfingers 7.12502
rthumb 10.5022 -4.67144
lclavicle -3.95581e-014 2.74323e-014
lhumerus -31.5207 -2.83533 90.8973
lradius 118.318
lwrist 29.6905
lhand -17.2436 8.81326
lfingers 7.12502
lthumb 9.00026 38.6013
rfemur -47.3607 -8.46762 20.4123
rtibia 87.9622
rfoot 1.54074 4.76237
rtoes -2.37999
lfemur -3.91271 -4.09673 -26.4126
ltibia 36.1256
lfoot -10.4994 -1.06885
ltoes -25.9053
